<svg 
    xmlns="http://www.w3.org/2000/svg" 
    xmlns:xlink="http://www.w3.org/1999/xlink" 
    viewBox="0 0 350 350" 
    width="350px"
    height="350px"
    preserveAspectRatio="xMidYMid meet" version="1.0"
>
<path fill="#f59cb0" d="M 237.632812 195.300781 C 227.667969 208.570312 211.375 210.554688 198.332031 206.636719 C 186.851562 203.1875 188.476562 196.707031 190.429688 187.988281 C 193.128906 176.070312 194.203125 164.703125 179.726562 171.542969 C 170.394531 175.957031 171.21875 187.851562 172.484375 193.972656 C 178.046875 220.515625 196.429688 247.523438 158.726562 257.539062 C 147.109375 260.628906 135.136719 260.796875 123.277344 255.746094 C 120.21875 254.449219 117.964844 252.738281 116.257812 247.664062 C 112.515625 236.65625 121.347656 225.5625 123.21875 214.472656 C 127.347656 198.527344 126.054688 181.835938 119.699219 166.578125 C 114.304688 153.472656 117.660156 144.617188 128.863281 137.195312 C 141.769531 128.644531 152.203125 127.539062 162.386719 138.960938 C 162.9375 139.457031 163.429688 139.265625 163.84375 138.6875 C 169.210938 129.5 177.660156 123.871094 188.0625 122.546875 C 246.660156 115.097656 262.484375 162.164062 237.632812 195.300781 Z M 237.632812 195.300781 " fill-opacity="1" fill-rule="nonzero"/>
<path fill="#db5c87" d="M 188.0625 122.574219 C 177.660156 123.898438 169.210938 129.527344 163.84375 138.714844 C 163.429688 139.292969 162.964844 139.457031 162.386719 138.988281 C 152.203125 127.539062 141.769531 128.644531 128.863281 137.195312 C 117.660156 144.617188 114.277344 153.472656 119.726562 166.550781 C 126.054688 181.808594 127.375 198.5 123.246094 214.445312 C 121.375 225.535156 112.542969 236.628906 116.285156 247.636719 C 118.019531 252.710938 120.277344 254.421875 123.304688 255.71875 C 135.136719 260.769531 147.136719 260.601562 158.753906 257.511719 C 196.457031 247.496094 178.046875 220.488281 172.515625 193.945312 C 171.246094 187.820312 170.421875 175.929688 179.753906 171.515625 C 194.230469 164.675781 193.15625 176.015625 190.457031 187.960938 C 188.476562 196.679688 186.851562 203.160156 198.359375 206.609375 C 211.402344 210.527344 227.722656 208.542969 237.660156 195.269531 C 262.484375 162.164062 246.660156 115.097656 188.0625 122.574219 Z M 207.6875 201.921875 C 194.035156 201.863281 200.917969 186.113281 202.542969 178.828125 C 208.238281 153.199219 164.53125 151.820312 167.175781 190.828125 C 168.6875 212.984375 184.679688 233.070312 170.007812 245.925781 C 160.402344 254.339844 148.980469 255.71875 136.761719 254.117188 C 120.605469 251.96875 124.046875 240.65625 129.441406 230.859375 C 137.503906 213.894531 139.84375 192.648438 134.3125 174.605469 C 132.523438 166.386719 123.496094 150.992188 129.824219 144.671875 C 135.796875 138.714844 144.796875 134.105469 153.191406 138.410156 C 159.46875 141.527344 158.808594 144.339844 162.550781 148.867188 C 165.191406 152.066406 170.945312 151.347656 175.980469 141.25 C 189.332031 114.546875 256.292969 125.914062 241.816406 175.488281 C 237.082031 190.636719 224.257812 203.132812 207.6875 201.921875 Z M 207.6875 201.921875 " fill-opacity="1" fill-rule="nonzero"/>
</svg>